<mxfile host="app.diagrams.net" modified="2023-11-10T18:13:20.670Z" agent="Mozilla/5.0 (Windows NT 10.0; Win64; x64; rv:109.0) Gecko/20100101 Firefox/115.0" version="22.1.0" etag="FAfyldEmzw6uTup3B1JJ" type="github">
  <diagram name="Page-1" id="Vjq4AFqN4IQq2SnK0vJ3">
    <mxGraphModel>
      <root>
        <mxCell id="0" />
        <mxCell id="1" parent="0" />
      </root>
    </mxGraphModel>
  </diagram>
</mxfile>
